<svg width="71" height="70" viewBox="0 0 71 70" fill="none" xmlns="http://www.w3.org/2000/svg">
<g clip-path="url(#clip0_1_62)">
<path d="M67.6549 49.7464H64.6706C63.5101 36.4809 53.5507 25.7056 40.6754 23.3047C40.9836 22.5874 41.157 21.7985 41.157 20.9692C41.157 17.7067 38.5123 15.063 35.2498 15.063C31.9874 15.063 29.3447 17.7067 29.3447 20.9692C29.3447 21.7996 29.5181 22.5884 29.8263 23.3047C16.9492 25.7055 6.9876 36.4799 5.82711 49.7464H2.84503C1.41152 49.7464 0.25 50.9078 0.25 52.3415C0.25 53.7751 1.41152 54.9365 2.84503 54.9365H8.3017H62.1982C62.2065 54.9375 62.2148 54.9365 62.219 54.9365H67.655C69.0885 54.9365 70.25 53.775 70.25 52.3415C70.25 50.908 69.0873 49.7464 67.6549 49.7464ZM11.0336 49.7464C12.3332 37.5324 22.6975 27.987 35.2499 27.987C47.8023 27.987 58.1667 37.5324 59.4662 49.7463H11.0336V49.7464Z" fill="#FA0000"/>
<path d="M39.4383 34.0251C36.9451 35.9308 36.4655 39.4963 38.3702 41.9917C40.2791 44.4849 43.8373 44.9624 46.3336 43.0587C48.8238 41.1519 49.3012 37.5875 47.4027 35.0931C45.4969 32.5999 41.9315 32.1224 39.4383 34.0251Z" fill="#FA0000"/>
<path d="M31.4561 37.7327C30.1752 38.7052 29.9272 40.5331 30.907 41.811C31.8806 43.0908 33.7117 43.3358 34.9873 42.3591C36.2661 41.3844 36.5121 39.5534 35.5322 38.2756C34.5576 36.9978 32.7328 36.7529 31.4561 37.7327Z" fill="#FA0000"/>
<path d="M31.5557 45.2841C30.8416 45.8342 30.7025 46.8587 31.2506 47.576C31.7955 48.2912 32.8189 48.4293 33.5362 47.8822C34.2576 47.3363 34.3946 46.3096 33.8465 45.5903C33.2975 44.8753 32.272 44.7361 31.5557 45.2841Z" fill="#FA0000"/>
</g>
<defs>
<clipPath id="clip0_1_62">
<rect width="70" height="70" fill="white" transform="translate(0.25)"/>
</clipPath>
</defs>
</svg>
