<svg width="71" height="70" viewBox="0 0 71 70" fill="none" xmlns="http://www.w3.org/2000/svg">
<path d="M36.8073 21.4422C29.9505 21.4422 24.3722 27.6792 24.3722 35.3454C24.3722 43.0118 29.9506 49.2486 36.8073 49.2486C43.6641 49.2486 49.2425 43.0116 49.2425 35.3454C49.2425 27.6792 43.6641 21.4422 36.8073 21.4422ZM36.8073 44.1818C32.4494 44.1818 28.904 40.2178 28.904 35.3454C28.904 30.473 32.4494 26.509 36.8073 26.509C41.1653 26.509 44.7106 30.473 44.7106 35.3454C44.7106 40.2177 41.1653 44.1818 36.8073 44.1818Z" fill="#FF0202"/>
<path d="M64.3661 38.8318V19.9843C64.3661 15.3944 59.1486 13.4882 56.6982 17.1016C54.4825 20.3688 53.1079 24.3039 52.735 28.373C50.1483 21.2368 43.8842 16.1899 36.585 16.1899C29.8736 16.1899 24.0373 20.4566 21.13 26.6905L20.6528 17.9665C20.5054 15.2699 18.4969 13.1574 16.0805 13.1574C15.6005 13.1574 15.1263 13.2431 14.6754 13.4061C14.2205 13.2423 13.7409 13.1574 13.2502 13.1574C12.7595 13.1574 12.28 13.2424 11.825 13.4061C11.3741 13.2431 10.8998 13.1574 10.4199 13.1574C8.00335 13.1574 5.99498 15.2699 5.84756 17.9666C5.2049 29.7162 5.25084 28.8201 5.25084 29.0097C5.25084 31.7215 6.3483 34.2961 8.2696 36.0078C7.63467 42.9781 7.21514 53.1952 7.21514 54.4897C7.21514 58.6494 9.87893 61.9999 13.2504 61.9999C16.6342 61.9999 19.2857 58.6344 19.2857 54.4897C19.2857 53.1951 18.8662 42.9777 18.2313 36.0078C18.571 35.7051 18.8868 35.3702 19.1783 35.0106C19.1718 35.2277 19.1674 35.4454 19.1674 35.6644C19.1674 46.4025 26.981 55.1385 36.5852 55.1385C44.6448 55.1385 51.4423 48.9862 53.4206 40.662C53.6512 41.073 53.9264 41.4498 54.2389 41.783C53.8366 47.5004 53.5827 53.8523 53.5827 54.7865C53.5827 58.7714 56.15 61.9999 59.4164 61.9999C62.6876 61.9999 65.2501 58.766 65.2501 54.7865C65.2499 53.6863 64.898 45.0738 64.3661 38.8318ZM15.3791 32.9471C14.6049 33.4714 14.1725 34.4531 14.2724 35.4591C14.9444 42.2306 15.4008 53.2854 15.4008 54.4897C15.4008 56.239 14.4379 57.6569 13.25 57.6569C12.0621 57.6569 11.0992 56.2389 11.0992 54.4897C11.0992 53.2854 11.5557 42.2306 12.2276 35.4591C12.3275 34.4527 11.8956 33.4717 11.1208 32.9471C9.9305 32.1409 9.13491 30.6793 9.13491 29.0097L9.72448 18.2317C9.74698 17.8208 10.0516 17.5004 10.4196 17.5004C10.8178 17.5004 11.1351 17.8733 11.1154 18.3177L10.7319 26.9618C10.7319 27.4477 11.0842 27.8415 11.5187 27.8415C11.9533 27.8415 12.3055 27.4477 12.3055 26.9618L12.4971 18.3214C12.5072 17.8648 12.8413 17.5006 13.2498 17.5006C13.6584 17.5006 13.9925 17.8648 14.0025 18.3214L14.1941 26.9618C14.1941 27.4477 14.5464 27.8415 14.9809 27.8415C15.4155 27.8415 15.7677 27.4477 15.7677 26.9618L15.3843 18.3177C15.3646 17.873 15.6821 17.5004 16.08 17.5004C16.4481 17.5004 16.7528 17.8208 16.7752 18.2317L17.3648 29.0097C17.3651 30.6793 16.5695 32.141 15.3791 32.9471ZM36.5849 50.7955C29.1225 50.7955 23.0514 44.0076 23.0514 35.6644C23.0514 27.3211 29.1226 20.5332 36.5849 20.5332C44.0472 20.5332 50.1183 27.3211 50.1183 35.6644C50.1183 44.0076 44.0472 50.7955 36.5849 50.7955ZM59.4162 57.6571C58.3397 57.6571 57.4669 56.372 57.4669 54.7866C57.4669 53.7804 57.8184 45.1862 58.3506 39.0416H57.8108C57.0957 39.0416 56.516 38.3934 56.516 37.5939V30.6229C56.516 26.688 57.6669 22.8612 59.7934 19.7258C60.0143 19.4001 60.4817 19.5739 60.4817 19.9845V39.04C61.0138 45.1849 61.3655 53.7804 61.3655 54.7866C61.3655 56.3719 60.4928 57.6571 59.4162 57.6571Z" fill="#FF0202"/>
</svg>
