<svg width="26" height="26" viewBox="0 0 26 26" fill="none" xmlns="http://www.w3.org/2000/svg">
<path d="M12.3126 5.03166C12.5556 4.48631 12.6772 4.21364 12.8465 4.12967C12.9935 4.05671 13.1661 4.05671 13.3131 4.12967C13.4824 4.21364 13.604 4.48631 13.847 5.03166L15.7832 9.37544C15.8552 9.53665 15.8911 9.61726 15.9467 9.67899C15.9959 9.73361 16.056 9.7773 16.1231 9.80721C16.199 9.84102 16.2868 9.85028 16.4624 9.8688L21.1919 10.368C21.7857 10.4306 22.0825 10.462 22.2147 10.597C22.3295 10.7143 22.3828 10.8785 22.3589 11.0409C22.3313 11.2278 22.1096 11.4276 21.6661 11.8273L18.1331 15.0111C18.0021 15.1292 17.9365 15.1884 17.895 15.2603C17.8582 15.324 17.8352 15.3947 17.8276 15.4678C17.8189 15.5504 17.8371 15.6367 17.8738 15.8094L18.8606 20.4617C18.9845 21.0458 19.0464 21.3378 18.9588 21.5052C18.8827 21.6507 18.7431 21.7521 18.5813 21.7795C18.395 21.811 18.1364 21.6619 17.6192 21.3636L13.4995 18.9875C13.3466 18.8993 13.2702 18.8553 13.1889 18.838C13.117 18.8227 13.0426 18.8227 12.9707 18.838C12.8894 18.8553 12.813 18.8993 12.6601 18.9875L8.54045 21.3636C8.02324 21.6619 7.76464 21.811 7.57836 21.7795C7.41654 21.7521 7.27685 21.6507 7.20079 21.5052C7.11323 21.3378 7.17517 21.0458 7.29906 20.4617L8.28581 15.8094C8.32243 15.6367 8.34074 15.5504 8.33205 15.4678C8.32435 15.3947 8.30139 15.324 8.26464 15.2603C8.22311 15.1884 8.15755 15.1292 8.02644 15.0111L4.49359 11.8273C4.05005 11.4276 3.82828 11.2278 3.80071 11.0409C3.77677 10.8785 3.83012 10.7143 3.94493 10.597C4.0771 10.462 4.37399 10.4306 4.96776 10.368L9.69727 9.8688C9.87281 9.85028 9.96057 9.84102 10.0365 9.80721C10.1036 9.7773 10.1637 9.73361 10.2129 9.67899C10.2685 9.61726 10.3045 9.53665 10.3763 9.37544L12.3126 5.03166Z" fill="#F6E20C"/>
</svg>
