<svg width="75" height="68" viewBox="0 0 75 68" fill="none" xmlns="http://www.w3.org/2000/svg">
<path d="M29.5156 4.03125C26.8906 7.96875 26.8906 13.2188 29.5156 17.1562" stroke="#FB0101" stroke-width="4" stroke-miterlimit="10" stroke-linecap="round" stroke-linejoin="round"/>
<path d="M38.4844 4.03125C35.8594 7.96875 35.8594 13.2188 38.4844 17.1562" stroke="#FB0101" stroke-width="4" stroke-miterlimit="10" stroke-linecap="round" stroke-linejoin="round"/>
<path d="M47.4531 4.03125C44.8281 7.96875 44.8281 13.2188 47.4531 17.1562" stroke="#FB0101" stroke-width="4" stroke-miterlimit="10" stroke-linecap="round" stroke-linejoin="round"/>
<path d="M7.75 24.1562V37.7188C7.75 48.2188 16.5 56.9688 27.4375 56.9688C38.375 56.9688 47.125 48.2188 47.125 37.7188V24.1562H7.75Z" stroke="#FB0101" stroke-width="4" stroke-miterlimit="10" stroke-linecap="round" stroke-linejoin="round"/>
<path d="M60.6875 50.4062C56.9688 50.4062 54.125 47.5625 54.125 43.8438V37.2812C54.125 33.7812 56.9688 30.7188 60.6875 30.7188C64.1875 30.7188 67.25 33.5625 67.25 37.2812V43.8438C67.25 47.5625 64.4062 50.4062 60.6875 50.4062Z" stroke="#FB0101" stroke-width="4" stroke-miterlimit="10" stroke-linecap="round" stroke-linejoin="round"/>
<path d="M15.625 63.9688H37.5H59.375" stroke="#FB0101" stroke-width="4" stroke-miterlimit="10" stroke-linecap="round" stroke-linejoin="round"/>
</svg>
